<svg id="visual" viewBox="0 0 1980 1080" width="1980" height="1080" xmlns="http://www.w3.org/2000/svg" xmlns:xlink="http://www.w3.org/1999/xlink" version="1.1"><rect x="0" y="0" width="1980" height="1080" fill="#eff0f1"></rect><defs><linearGradient id="grad1_0" x1="45.5%" y1="100%" x2="100%" y2="0%"><stop offset="13.333333333333334%" stop-color="#eff0f1" stop-opacity="1"></stop><stop offset="86.66666666666667%" stop-color="#eff0f1" stop-opacity="1"></stop></linearGradient></defs><defs><linearGradient id="grad2_0" x1="0%" y1="100%" x2="54.5%" y2="0%"><stop offset="13.333333333333334%" stop-color="#eff0f1" stop-opacity="1"></stop><stop offset="86.66666666666667%" stop-color="#eff0f1" stop-opacity="1"></stop></linearGradient></defs><g transform="translate(1980, 1080)"><path d="M-324 0C-324.7 -47.3 -325.3 -94.5 -299.3 -124C-273.3 -153.5 -220.6 -165.1 -186.7 -186.7C-152.7 -208.2 -137.4 -239.7 -109.4 -264.2C-81.5 -288.8 -40.7 -306.4 0 -324L0 0Z" fill="#d9a402"></path></g><g transform="translate(0, 0)"><path d="M324 0C313.2 43.2 302.4 86.4 278.1 115.2C253.8 144 215.9 158.4 190.9 190.9C165.9 223.5 153.7 274.1 124 299.3C94.3 324.5 47.2 324.3 0 324L0 0Z" fill="#d9a402"></path></g></svg>